<?xml version="1.0" encoding="utf-8"?>
<!-- Generator: Adobe Illustrator 21.1.0, SVG Export Plug-In . SVG Version: 6.00 Build 0)  -->
<svg version="1.1" id="Layer_1" xmlns="http://www.w3.org/2000/svg" xmlns:xlink="http://www.w3.org/1999/xlink" x="0px" y="0px"
	 viewBox="0 0 361 504" style="enable-background:new 0 0 361 504;" xml:space="preserve">
<style type="text/css">
	.st0{fill:#754C29;}
	.st1{fill:#FFFFFF;}
	.st2{fill:#FFDE17;}
	.st3{fill:#F6ADCD;}
	.st4{fill:#C9B8B0;}
	.st5{fill:#FEE10F;}
	.st6{fill:#17BECC;}
	.st7{fill:#F0F3F7;}
	.st8{fill:#D8EFF1;}
	.st9{fill:url(#SVGID_1_);}
	.st10{fill:url(#SVGID_2_);}
	.st11{fill:url(#SVGID_3_);}
	.st12{fill:url(#SVGID_4_);}
	.st13{fill:url(#SVGID_5_);}
	.st14{fill:url(#SVGID_6_);}
	.st15{fill:url(#SVGID_7_);}
	.st16{fill:url(#SVGID_8_);}
	.st17{fill:url(#SVGID_9_);}
</style>
<path class="st4" d="M347.9,290.3c18.1-7.7,15.7-21.9-4.7-27.7c14-14.4-5.2-26.6-32.3-21c-8.1,1.7-15.1,4.6-20.4,8.2
	c-1.5-1.8-3-3.6-4.6-5.4c20-5.1,38.2-16.1,51.8-32.9c28.8-35.7,17.6-110.8,16.2-166.3c-0.7-26.2-7.6-33.2-29.6-23.4
	C294,35.3,237.5,36.6,198.1,50.2c-12.7,4.4-26.4,4.4-39.1,0C119.7,36.6,63.2,35.3,32.9,21.8C10.9,12.1,4,19.1,3.3,45.3
	C1.9,100.7-9.3,175.8,19.5,211.5c14.6,18.1,34.6,29.5,56.4,34c-3.8,4.3-7.4,8.9-10.6,13.6c-10.6-19.8-60.6-26.2-64.9-8.5
	c-1.5,6.1,3.8,12.9,12.8,18.1c-18.1,7.7-15.7,21.9,4.7,27.7c-12.7,13,1.8,24.5,25.5,22C34.7,398,99.5,466.2,181.4,466.2
	c83.3,0,148.1-70.3,137.7-150.5C354.4,326.9,376.4,306.8,347.9,290.3z"/>
<path class="st1" d="M173.1,154.4c0,40.5-32.8,73.3-73.3,73.3c-40.5,0-73.3-32.8-73.3-73.3c0-40.5,32.8-73.3,73.3-73.3
	C140.3,81.1,173.1,113.9,173.1,154.4z M258.8,81.1c-40.5,0-73.3,32.8-73.3,73.3c0,40.5,32.8,73.3,73.3,73.3s73.3-32.8,73.3-73.3
	C332.1,113.9,299.3,81.1,258.8,81.1z"/>
<path class="st7" d="M270.8,247.1c-32.4,3.4-66.3-7.8-92.2-32.5c-24.5,23.4-56,34.4-86.2,32.9c-0.5,0-2.8,4.8-3.1,5.5
	c-21,38.9-27.9,93-2.3,131.3c18.5,27.7,48.2,47.2,78.1,60.8c10.4,4.7,22.3,4.7,32.7-0.1c21.9-10.2,43-23.3,60.4-40.2
	c34.7-33.6,40.4-68.3,29.2-115.7C283.1,271.6,273.1,246.9,270.8,247.1z"/>
<path d="M99.8,132.7c-17.8,0-32.2,14.4-32.2,32.2S82.1,197,99.8,197s32.2-14.4,32.2-32.2S117.6,132.7,99.8,132.7z M79.5,168.2
	c-5.6-2.4,4.5-26.1,10.1-23.7C95.2,146.9,85.1,170.6,79.5,168.2z M258.8,132.7c-17.8,0-32.2,14.4-32.2,32.2s14.4,32.2,32.2,32.2
	c17.8,0,32.2-14.4,32.2-32.2S276.6,132.7,258.8,132.7z M238.2,168.2c-5.6-2.4,4.5-26.1,10.1-23.7
	C253.9,146.9,243.8,170.6,238.2,168.2z"/>
<path class="st5" d="M181.4,260.7c-16.8-22.2-26.3-39-35.2-61c29.6-6,42.9-5.3,70.4,0C205,223.8,197.8,239.9,181.4,260.7z"/>
<path class="st5" d="M165.9,482.2c-2.8,19.7-15.9,29.2-21.6,15.1c-5.3,6.7-11.6,5.9-14.8-2c-9.3,11.6-19.2-1-16.3-20.8
	c2.8-19.5,15.8-29.2,21.5-15.3c5.3-6.6,11.6-5.7,14.8,2.3C158.9,449.7,168.7,462.4,165.9,482.2z M251.6,474.6
	c-2.8-19.5-15.8-29.2-21.5-15.3c-5.3-6.6-11.6-5.7-14.8,2.3c-9.4-11.8-19.3,0.9-16.4,20.6c2.8,19.7,15.9,29.2,21.6,15.1
	c5.3,6.7,11.6,5.9,14.8-2C244.7,506.9,254.5,494.3,251.6,474.6z"/>
<path class="st5" d="M286.4,62c-7.1-6.9-19.3-16.6-32.6-21c-0.7-30.4-9.7-50.9-36-36.1c-10,5.6-19.9,9.9-26.7,16
	c-5.9-2.7-12.6-2.7-18.5,0c-6.9-6-16.8-10.4-26.7-16c-27.3-15.3-35.9,7.3-36.1,38.5c-13.6,4.2-26.1,14.2-33.3,21.2
	c9.2,4.4,18.5,3.3,24.4,3c-2.4,6.6,2,16.7,1.5,27.6c5-6.3,10.6-11.8,17-17.2c6.7,5.8,16.2,4.7,26.5-1c9.1-5,18.6-9.3,25.7-15.1
	c6.5,3.4,14.2,3.3,20.7,0c7,5.8,16.6,10.1,25.7,15.1c10.9,6,20.9,7,27.6,0c5.6,4.9,10.6,9.9,15.1,15.6c-0.5-10.9,3.9-20.9,1.5-27.6
	C267.9,65.3,277.2,66.4,286.4,62z"/>
</svg>
